<svg width="36" height="36" viewBox="0 0 36 36" fill="none" xmlns="http://www.w3.org/2000/svg">
<path d="M18 2C9.1632 2 2 9.1632 2 18C2 26.8368 9.1632 34 18 34C26.8368 34 34 26.8368 34 18C34 9.1632 26.8368 2 18 2Z" stroke="#000A19" stroke-width="3" stroke-linecap="round" stroke-linejoin="round"/>
<path d="M5.63342 28.1535C5.63342 28.1535 9.19982 22.085 17.9998 22.085C26.7998 22.085 30.3678 28.1535 30.3678 28.1535M17.9998 17.9999C19.2729 17.9999 20.4938 17.4942 21.3939 16.594C22.2941 15.6938 22.7998 14.4729 22.7998 13.1999C22.7998 11.9269 22.2941 10.706 21.3939 9.80579C20.4938 8.90562 19.2729 8.3999 17.9998 8.3999C16.7268 8.3999 15.5059 8.90562 14.6057 9.80579C13.7055 10.706 13.1998 11.9269 13.1998 13.1999C13.1998 14.4729 13.7055 15.6938 14.6057 16.594C15.5059 17.4942 16.7268 17.9999 17.9998 17.9999Z" stroke="#000A19" stroke-width="3" stroke-linecap="round" stroke-linejoin="round"/>
</svg>
