<svg width="28" height="29" viewBox="0 0 28 29" fill="none" xmlns="http://www.w3.org/2000/svg">
<path d="M21.3501 17.9999C19.4251 17.8249 18.3751 20.4499 16.9751 21.1499C14.7001 22.3749 10.5001 17.9999 10.5001 17.9999C10.5001 17.9999 6.12505 13.7999 7.17505 11.5249C8.05005 10.1249 10.6751 9.07491 10.5001 7.14991C10.3251 5.39991 6.47505 -0.900089 4.55005 0.849911C0.350053 4.69991 5.35762e-05 6.27491 5.35762e-05 9.42491C-0.174946 14.8499 6.82505 21.6749 6.82505 21.6749C7.52505 22.3749 13.6501 28.6749 19.0751 28.4999C22.2251 28.4999 23.8001 28.1499 27.6501 23.9499C29.4001 22.0249 23.2751 18.1749 21.3501 17.9999Z" fill="#000A1A"/>
</svg>
