<svg width="28" height="29" viewBox="0 0 28 29" fill="none" xmlns="http://www.w3.org/2000/svg">
<g clip-path="url(#clip0_693_5338)">
<path d="M21.3501 17.7411C19.4251 17.5661 18.3751 20.1911 16.9751 20.8911C14.7001 22.1161 10.5001 17.7411 10.5001 17.7411C10.5001 17.7411 6.12505 13.5411 7.17505 11.2661C8.05005 9.86612 10.6751 8.81612 10.5001 6.89112C10.3251 5.14112 6.47505 -1.15888 4.55005 0.591122C0.350053 4.44112 5.35762e-05 6.01612 5.35762e-05 9.16612C-0.174946 14.5911 6.82505 21.4161 6.82505 21.4161C7.52505 22.1161 13.6501 28.4161 19.0751 28.2411C22.2251 28.2411 23.8001 27.8911 27.6501 23.6911C29.4001 21.7661 23.2751 17.9161 21.3501 17.7411Z" fill="#F7F9FF"/>
</g>
<defs>
<clipPath id="clip0_693_5338">
<rect width="28" height="28" fill="white" transform="translate(0 0.241211)"/>
</clipPath>
</defs>
</svg>
