<svg width="36" height="36" viewBox="0 0 36 36" fill="none" xmlns="http://www.w3.org/2000/svg">
<path d="M3 9C3 8.20435 3.31607 7.44129 3.87868 6.87868C4.44129 6.31607 5.20435 6 6 6H30C30.7956 6 31.5587 6.31607 32.1213 6.87868C32.6839 7.44129 33 8.20435 33 9V27C33 27.7956 32.6839 28.5587 32.1213 29.1213C31.5587 29.6839 30.7956 30 30 30H6C5.20435 30 4.44129 29.6839 3.87868 29.1213C3.31607 28.5587 3 27.7956 3 27V9ZM8.2785 9L18 17.5065L27.7215 9H8.2785ZM30 10.9935L18.9885 20.6295C18.715 20.8692 18.3637 21.0013 18 21.0013C17.6363 21.0013 17.285 20.8692 17.0115 20.6295L6 10.9935V27H30V10.9935Z" fill="#000A1A"/>
</svg>
