<svg width="30" height="25" viewBox="0 0 30 25" fill="none" xmlns="http://www.w3.org/2000/svg">
<path d="M0 3.24121C0 2.44556 0.31607 1.6825 0.878679 1.11989C1.44129 0.557281 2.20435 0.241211 3 0.241211H27C27.7956 0.241211 28.5587 0.557281 29.1213 1.11989C29.6839 1.6825 30 2.44556 30 3.24121V21.2412C30 22.0369 29.6839 22.7999 29.1213 23.3625C28.5587 23.9251 27.7956 24.2412 27 24.2412H3C2.20435 24.2412 1.44129 23.9251 0.878679 23.3625C0.31607 22.7999 0 22.0369 0 21.2412V3.24121ZM5.2785 3.24121L15 11.7477L24.7215 3.24121H5.2785ZM27 5.23471L15.9885 14.8707C15.715 15.1104 15.3637 15.2425 15 15.2425C14.6363 15.2425 14.285 15.1104 14.0115 14.8707L3 5.23471V21.2412H27V5.23471Z" fill="#F7F9FF"/>
</svg>
