<svg width="32" height="33" viewBox="0 0 32 33" fill="none" xmlns="http://www.w3.org/2000/svg">
<path d="M23.92 24.4202C21.6408 26.1575 18.8655 27.12 16 27.1668C6.66667 27.1668 1.33334 16.5002 1.33334 16.5002C2.99186 13.4094 5.29218 10.709 8.08 8.58016M13.2 6.1535C14.1178 5.93867 15.0574 5.83128 16 5.8335C25.3333 5.8335 30.6667 16.5002 30.6667 16.5002C29.8573 18.0143 28.8921 19.4398 27.7867 20.7535M18.8267 19.3268C18.4605 19.7198 18.0189 20.035 17.5282 20.2537C17.0375 20.4723 16.5079 20.5898 15.9708 20.5993C15.4337 20.6088 14.9002 20.51 14.4021 20.3088C13.9041 20.1076 13.4516 19.8082 13.0718 19.4284C12.692 19.0485 12.3925 18.5961 12.1913 18.098C11.9902 17.5999 11.8914 17.0665 11.9008 16.5294C11.9103 15.9923 12.0279 15.4626 12.2465 14.972C12.4651 14.4813 12.7803 14.0397 13.1733 13.6735M1.33334 1.8335L30.6667 31.1668" stroke="#9B9ABE" stroke-width="4" stroke-linecap="round" stroke-linejoin="round"/>
</svg>
