<svg width="33" height="32" viewBox="0 0 33 32" fill="none" xmlns="http://www.w3.org/2000/svg">
<path d="M16.5 0C7.67867 0 0.5 7.17867 0.5 16C0.5 24.8213 7.67867 32 16.5 32C25.3213 32 32.5 24.8213 32.5 16C32.5 7.17867 25.3213 0 16.5 0ZM16.5 2.66667C23.88 2.66667 29.8333 8.62 29.8333 16C29.8366 19.1919 28.692 22.2787 26.6085 24.6968C24.5249 27.1149 21.6414 28.7033 18.484 29.172V19.888H22.2813L22.8773 16.0307H18.484V13.924C18.484 12.324 19.0107 10.9013 20.508 10.9013H22.9147V7.536C22.492 7.47867 21.5973 7.35467 19.9067 7.35467C16.376 7.35467 14.3067 9.21867 14.3067 13.4667V16.0307H10.6773V19.888H14.3067V29.1387C11.193 28.6262 8.36298 27.0233 6.32226 24.6165C4.28153 22.2096 3.16305 19.1556 3.16667 16C3.16667 8.62 9.12 2.66667 16.5 2.66667Z" fill="#F9F9FB"/>
</svg>
