<svg width="33" height="32" viewBox="0 0 33 32" fill="none" xmlns="http://www.w3.org/2000/svg">
<path d="M23.8334 8.66675H23.8468M9.83342 2.66675H23.1667C26.8486 2.66675 29.8334 5.65152 29.8334 9.33342V22.6667C29.8334 26.3486 26.8486 29.3334 23.1667 29.3334H9.83342C6.15152 29.3334 3.16675 26.3486 3.16675 22.6667V9.33342C3.16675 5.65152 6.15152 2.66675 9.83342 2.66675ZM21.8334 15.1601C21.998 16.2697 21.8084 17.403 21.2918 18.3988C20.7751 19.3945 19.9576 20.202 18.9556 20.7063C17.9536 21.2107 16.818 21.3862 15.7105 21.208C14.6029 21.0298 13.5798 20.5069 12.7865 19.7136C11.9933 18.9204 11.4704 17.8972 11.2922 16.7897C11.114 15.6822 11.2895 14.5466 11.7938 13.5446C12.2982 12.5426 13.1057 11.7251 14.1014 11.2084C15.0971 10.6917 16.2304 10.5022 17.3401 10.6667C18.472 10.8346 19.5199 11.362 20.329 12.1712C21.1381 12.9803 21.6656 14.0282 21.8334 15.1601Z" stroke="#F9F9FB" stroke-width="3" stroke-linecap="round" stroke-linejoin="round"/>
</svg>
