<svg width="33" height="33" viewBox="0 0 33 33" fill="none" xmlns="http://www.w3.org/2000/svg">
<path d="M9.625 15.125V9.625C9.625 7.80164 10.3493 6.05295 11.6386 4.76364C12.928 3.47433 14.6766 2.75 16.5 2.75C18.3234 2.75 20.072 3.47433 21.3614 4.76364C22.6507 6.05295 23.375 7.80164 23.375 9.625V15.125M6.875 15.125H26.125C27.6438 15.125 28.875 16.3562 28.875 17.875V27.5C28.875 29.0188 27.6438 30.25 26.125 30.25H6.875C5.35622 30.25 4.125 29.0188 4.125 27.5V17.875C4.125 16.3562 5.35622 15.125 6.875 15.125Z" stroke="#000A1A" stroke-width="4" stroke-linecap="round" stroke-linejoin="round"/>
</svg>
