<svg width="641" height="170" viewBox="0 0 641 170" fill="none" xmlns="http://www.w3.org/2000/svg">
<g filter="url(#filter0_b_30_136)">
<path d="M611.792 24.8342C631.768 24.8342 640.382 28.4366 640.382 40.5325C640.382 53.5449 638.18 68.158 637 86.5C636.242 98.2851 635.49 106.787 637 118.5C638.513 130.242 640.382 136.447 640.382 146.527C640.382 159.906 630.119 168.703 610.875 168.703C594.747 168.703 583.751 161.555 583.751 149.826C583.751 131.499 583.751 125 583.751 125C583.751 125 585.182 87.1889 582 76C578.966 65.334 575.726 50.9791 575.726 40.5325C575.726 28.9864 596.58 24.8342 611.792 24.8342Z" fill="#FBB901"/>
<path d="M516.642 26.6669C550.73 26.6669 552.197 60.9387 557.695 78.5329L569.607 117.57C572.723 127.283 578.588 136.264 578.588 146.344C578.588 160.639 563.01 167.053 544.866 167.053C514.992 167.053 515.725 150.559 515.725 134.248C515.725 127.1 517.925 120.319 517.925 113.171C517.925 109.689 516.825 105.474 510.41 105.474C503.813 105.474 496.261 111.671 496.261 115.703C496.261 126.699 507.845 137.363 507.845 149.093C507.845 163.205 500.88 169.069 480.354 169.069C463.126 169.069 464.045 158.565 464.045 147.203C464.045 129.059 467.624 99.9528 467.624 99.9528C467.624 99.9528 467.704 59.673 471.92 44.828C475.402 31.8157 495.199 26.6669 516.642 26.6669ZM502.163 86.4136C502.163 88.7961 505.096 89.3459 507.845 89.3459C511.144 89.3459 514.442 88.2463 514.442 85.4972C514.442 83.1147 518.106 55.549 506.283 56.2825C494.43 57.0179 502.163 83.1147 502.163 86.4136Z" fill="#FBB901"/>
<path d="M369.069 25.0174C398.209 25.0174 393.627 44.6276 393.627 58.9228C393.627 59.4726 394.177 60.0224 394.91 60.0224C396.376 60.0224 399.309 57.6399 400.042 56.7235C407.556 47.5599 408.289 28.3163 421.851 28.3163C433.947 28.3163 445.676 38.0298 445.676 46.4603C445.676 58.373 421.851 76.7402 421.851 82.0551C421.851 86.6369 434.576 88.1284 440.42 94.6608C445.825 100.703 450.443 112.839 450.443 112.839C450.443 112.839 457.602 129.116 457.602 149.093C457.602 158.256 446.605 164.121 434.509 164.121C428.645 164.121 422.23 163.021 418.015 159.722C406.469 150.559 403.341 118.12 398.209 103.824C397.659 102.542 394.91 97.2267 393.077 97.0434L392.161 97.7765C391.794 98.143 391.245 99.2426 391.245 99.4259V117.203C391.245 126.55 398.942 135.164 398.942 144.144C398.942 158.073 390.512 168.886 369.252 168.886C352.391 168.886 342.311 160.822 342.311 149.093C342.311 131.132 348.909 112.622 348.909 94.6608V71.3165C348.909 61.0533 360.238 61.0017 360.238 50.5552C360.238 39.3756 353.674 25.0174 369.069 25.0174Z" fill="#FBB901"/>
<path d="M270.355 3.11066C282.267 3.11066 287.216 11.9077 287.216 19.0553C287.216 27.4858 285.2 36.2829 285.2 44.7134C285.2 49.6618 285.2 65.4232 295.096 65.4232C302.794 65.4232 302.61 54.0603 302.61 50.3949C302.61 39.032 299.495 28.0357 299.495 16.6728C299.495 8.60882 309.751 5.02526 318.738 3.29393C336.245 -0.0783796 345.204 -9.58088 353.079 33.3735C360.954 76.3279 333.364 50.309 333.913 57.09C335.196 73.5845 337.212 90.0791 337.212 106.574C337.212 130.949 343.052 173.771 288.645 169.436C234.238 165.1 240.995 127.1 240.995 127.1L239.162 74.1343C238.979 65.7038 205.602 88.4983 205.602 54.1348C201.307 -8.86502 215.625 22.6349 270.355 3.11066Z" fill="url(#paint0_linear_30_136)"/>
<path d="M179.332 28.3163C193.444 28.3163 200.591 24.2901 200.591 37.6689C200.591 42.2507 197.44 54.8736 189.743 54.8736H183.18C183.18 54.8736 163.039 51.4547 163.039 59.5277C163.039 83.4354 202.308 48.237 203.5 71C204.693 93.763 177.611 76.1275 175.319 89.0517C173.998 96.4993 172.974 97.9472 177.5 104.008C188.259 118.415 202.247 75.288 218.277 83.4354C228.81 88.7893 232.807 102.645 232.807 109.975C232.807 139.116 230.831 167.786 179.515 167.786C155.69 167.786 133.147 161.189 133.147 141.578C133.147 129.116 135.897 116.47 135.897 104.008C135.897 84.9474 130.582 65.8871 130.582 46.8268C130.582 30.8821 163.387 28.3163 179.332 28.3163Z" fill="#FBB901"/>
<path d="M105.528 23.9178C120.739 23.9178 125.504 32.3483 125.504 41.6952C125.504 49.7592 124.038 57.6399 123.488 65.5206C122.939 74.1344 122.755 82.7482 122.755 91.3619C122.755 106.39 125.321 121.235 125.321 136.264C125.321 152.392 124.038 169.436 95.0813 169.436C63.925 169.436 74.5913 136.264 72.4436 123.578C70.2959 110.892 68.3244 102.28 60.9891 92.7937C59.8729 91.3502 59.3072 90.4404 57.8735 89.3116C50.7058 83.6681 54.5782 112.438 54.5782 112.438C54.5782 112.438 62.6421 141.578 62.6421 156.24C62.6421 165.404 54.5782 168.886 42.4822 168.886C26.7208 168.886 0 160.089 0 149.826C0 139.562 3.84871 129.116 4.5818 118.853C6.59779 93.1947 5.86471 67.3533 5.86471 41.6952C5.86463 23.9178 31.8524 26.1171 46.3309 26.1171C72.9054 26.1171 93.0653 77.7597 99.648 76.3279C106.231 74.8961 95.7893 61.0247 93.0653 55.0741C90.3413 49.1234 85.4483 42.1946 88.6668 34.7309C91.7641 27.5479 95.8143 23.9178 105.528 23.9178Z" fill="#FBB901"/>
</g>
<defs>
<filter id="filter0_b_30_136" x="-4" y="-4" width="648.382" height="177.742" filterUnits="userSpaceOnUse" color-interpolation-filters="sRGB">
<feFlood flood-opacity="0" result="BackgroundImageFix"/>
<feGaussianBlur in="BackgroundImageFix" stdDeviation="2"/>
<feComposite in2="SourceAlpha" operator="in" result="effect1_backgroundBlur_30_136"/>
<feBlend mode="normal" in="SourceGraphic" in2="effect1_backgroundBlur_30_136" result="shape"/>
</filter>
<linearGradient id="paint0_linear_30_136" x1="320.191" y1="0" x2="320.191" y2="169.742" gradientUnits="userSpaceOnUse">
<stop offset="1" stop-color="#FBB901"/>
</linearGradient>
</defs>
</svg>
