<svg width="57" height="57" viewBox="0 0 57 57" fill="none" xmlns="http://www.w3.org/2000/svg">
<path d="M28.5 2C13.8641 2 2 13.8641 2 28.5C2 43.136 13.8641 55 28.5 55C43.136 55 55 43.136 55 28.5C55 13.8641 43.136 2 28.5 2Z" stroke="#F7F9FF" stroke-width="4" stroke-linecap="round" stroke-linejoin="round"/>
<path d="M8.01782 45.317C8.01782 45.317 13.9247 35.2661 28.4997 35.2661C43.0747 35.2661 48.9842 45.317 48.9842 45.317M28.4997 28.5001C30.6081 28.5001 32.6303 27.6625 34.1212 26.1716C35.6121 24.6807 36.4497 22.6586 36.4497 20.5501C36.4497 18.4416 35.6121 16.4195 34.1212 14.9286C32.6303 13.4377 30.6081 12.6001 28.4997 12.6001C26.3912 12.6001 24.3691 13.4377 22.8782 14.9286C21.3873 16.4195 20.5497 18.4416 20.5497 20.5501C20.5497 22.6586 21.3873 24.6807 22.8782 26.1716C24.3691 27.6625 26.3912 28.5001 28.4997 28.5001Z" stroke="#F7F9FF" stroke-width="4" stroke-linecap="round" stroke-linejoin="round"/>
</svg>
