<svg width="33" height="32" viewBox="0 0 33 32" fill="none" xmlns="http://www.w3.org/2000/svg">
<g clip-path="url(#clip0_167_208)">
<path d="M31.1666 3.99998C29.8898 4.90062 28.4761 5.58946 26.9799 6.03998C26.1769 5.11666 25.1097 4.46224 23.9226 4.16521C22.7356 3.86819 21.4859 3.94291 20.3427 4.37925C19.1995 4.81559 18.2178 5.59252 17.5306 6.60494C16.8433 7.61736 16.4835 8.81643 16.4999 10.04V11.3733C14.1568 11.4341 11.835 10.9144 9.74126 9.86057C7.64758 8.80675 5.84701 7.25149 4.49992 5.33331C4.49992 5.33331 -0.833414 17.3333 11.1666 22.6666C8.42062 24.5306 5.14946 25.4652 1.83325 25.3333C13.8333 32 28.4999 25.3333 28.4999 9.99998C28.4987 9.62858 28.463 9.25811 28.3933 8.89331C29.7541 7.5513 30.7144 5.85693 31.1666 3.99998Z" stroke="#F9F9FB" stroke-width="3" stroke-linecap="round" stroke-linejoin="round"/>
</g>
<defs>
<clipPath id="clip0_167_208">
<rect width="32" height="32" fill="white" transform="translate(0.5)"/>
</clipPath>
</defs>
</svg>
